<mxfile host="65bd71144e">
    <diagram id="8G3aKWeBd09Xji-XPJYZ" name="画面遷移図">
        <mxGraphModel dx="1818" dy="1365" grid="1" gridSize="10" guides="1" tooltips="1" connect="1" arrows="1" fold="1" page="1" pageScale="1" pageWidth="10000" pageHeight="10000" math="0" shadow="0">
            <root>
                <mxCell id="0"/>
                <mxCell id="1" parent="0"/>
                <mxCell id="2" value="ログイン" style="rounded=0;whiteSpace=wrap;html=1;align=left;strokeColor=default;horizontal=1;verticalAlign=top;" vertex="1" parent="1">
                    <mxGeometry x="90" y="440" width="160" height="80" as="geometry"/>
                </mxCell>
                <mxCell id="18" style="edgeStyle=orthogonalEdgeStyle;html=1;exitX=1;exitY=0.25;exitDx=0;exitDy=0;entryX=0;entryY=0.5;entryDx=0;entryDy=0;" edge="1" parent="1" source="3" target="15">
                    <mxGeometry relative="1" as="geometry"/>
                </mxCell>
                <mxCell id="21" value="銘柄登録" style="edgeLabel;html=1;align=center;verticalAlign=middle;resizable=0;points=[];" vertex="1" connectable="0" parent="18">
                    <mxGeometry x="-0.2217" relative="1" as="geometry">
                        <mxPoint x="65" y="-89" as="offset"/>
                    </mxGeometry>
                </mxCell>
                <mxCell id="49" style="edgeStyle=orthogonalEdgeStyle;html=1;exitX=1;exitY=0.75;exitDx=0;exitDy=0;" edge="1" parent="1" source="3" target="31">
                    <mxGeometry relative="1" as="geometry">
                        <mxPoint x="600" y="510" as="sourcePoint"/>
                    </mxGeometry>
                </mxCell>
                <mxCell id="3" value="トップ" style="rounded=0;whiteSpace=wrap;html=1;align=left;strokeColor=default;horizontal=1;verticalAlign=top;" vertex="1" parent="1">
                    <mxGeometry x="410" y="160" width="160" height="600" as="geometry"/>
                </mxCell>
                <mxCell id="13" value="" style="endArrow=classic;html=1;exitX=1;exitY=0.5;exitDx=0;exitDy=0;entryX=0;entryY=0.5;entryDx=0;entryDy=0;" edge="1" parent="1" source="2" target="3">
                    <mxGeometry relative="1" as="geometry">
                        <mxPoint x="260" y="300" as="sourcePoint"/>
                        <mxPoint x="360" y="300" as="targetPoint"/>
                    </mxGeometry>
                </mxCell>
                <mxCell id="14" value="ログイン" style="edgeLabel;resizable=0;html=1;align=center;verticalAlign=middle;strokeColor=default;" connectable="0" vertex="1" parent="13">
                    <mxGeometry relative="1" as="geometry"/>
                </mxCell>
                <mxCell id="15" value="銘柄登録" style="rounded=0;whiteSpace=wrap;html=1;align=left;strokeColor=default;horizontal=1;verticalAlign=top;" vertex="1" parent="1">
                    <mxGeometry x="820" y="170" width="160" height="80" as="geometry"/>
                </mxCell>
                <mxCell id="24" style="edgeStyle=none;html=1;exitX=0.75;exitY=0;exitDx=0;exitDy=0;entryX=0.75;entryY=1;entryDx=0;entryDy=0;" edge="1" parent="1" source="16" target="15">
                    <mxGeometry relative="1" as="geometry"/>
                </mxCell>
                <mxCell id="25" value="新規登録" style="edgeLabel;html=1;align=center;verticalAlign=middle;resizable=0;points=[];" vertex="1" connectable="0" parent="24">
                    <mxGeometry x="-0.3272" y="2" relative="1" as="geometry">
                        <mxPoint as="offset"/>
                    </mxGeometry>
                </mxCell>
                <mxCell id="16" value="銘柄一覧" style="rounded=0;whiteSpace=wrap;html=1;align=left;strokeColor=default;horizontal=1;verticalAlign=top;" vertex="1" parent="1">
                    <mxGeometry x="820" y="330" width="160" height="80" as="geometry"/>
                </mxCell>
                <mxCell id="17" value="銘柄修正" style="rounded=0;whiteSpace=wrap;html=1;align=left;strokeColor=default;horizontal=1;verticalAlign=top;" vertex="1" parent="1">
                    <mxGeometry x="1100" y="330" width="160" height="80" as="geometry"/>
                </mxCell>
                <mxCell id="22" style="edgeStyle=none;html=1;exitX=0.25;exitY=1;exitDx=0;exitDy=0;entryX=0.25;entryY=0;entryDx=0;entryDy=0;" edge="1" parent="1" source="15" target="16">
                    <mxGeometry relative="1" as="geometry">
                        <mxPoint x="680" y="350" as="sourcePoint"/>
                        <mxPoint x="880" y="290" as="targetPoint"/>
                        <Array as="points"/>
                    </mxGeometry>
                </mxCell>
                <mxCell id="23" value="登録&lt;br&gt;／キャンセル" style="edgeLabel;html=1;align=center;verticalAlign=middle;resizable=0;points=[];" vertex="1" connectable="0" parent="22">
                    <mxGeometry x="-0.2217" relative="1" as="geometry">
                        <mxPoint as="offset"/>
                    </mxGeometry>
                </mxCell>
                <mxCell id="27" style="edgeStyle=none;html=1;exitX=1;exitY=0.25;exitDx=0;exitDy=0;entryX=0;entryY=0.25;entryDx=0;entryDy=0;" edge="1" parent="1" source="16" target="17">
                    <mxGeometry relative="1" as="geometry">
                        <mxPoint x="1080" y="370" as="sourcePoint"/>
                        <mxPoint x="1080" y="450" as="targetPoint"/>
                        <Array as="points"/>
                    </mxGeometry>
                </mxCell>
                <mxCell id="28" value="行選択" style="edgeLabel;html=1;align=center;verticalAlign=middle;resizable=0;points=[];" vertex="1" connectable="0" parent="27">
                    <mxGeometry x="-0.2217" relative="1" as="geometry">
                        <mxPoint as="offset"/>
                    </mxGeometry>
                </mxCell>
                <mxCell id="29" style="edgeStyle=none;html=1;exitX=0;exitY=0.75;exitDx=0;exitDy=0;entryX=1;entryY=0.75;entryDx=0;entryDy=0;" edge="1" parent="1" source="17" target="16">
                    <mxGeometry relative="1" as="geometry">
                        <mxPoint x="1000" y="450" as="sourcePoint"/>
                        <mxPoint x="1120" y="450" as="targetPoint"/>
                        <Array as="points"/>
                    </mxGeometry>
                </mxCell>
                <mxCell id="30" value="保存&lt;br&gt;／キャンセル" style="edgeLabel;html=1;align=center;verticalAlign=middle;resizable=0;points=[];" vertex="1" connectable="0" parent="29">
                    <mxGeometry x="-0.2217" relative="1" as="geometry">
                        <mxPoint as="offset"/>
                    </mxGeometry>
                </mxCell>
                <mxCell id="31" value="配当実績登録" style="rounded=0;whiteSpace=wrap;html=1;align=left;strokeColor=default;horizontal=1;verticalAlign=top;" vertex="1" parent="1">
                    <mxGeometry x="820" y="530" width="160" height="80" as="geometry"/>
                </mxCell>
                <mxCell id="32" style="edgeStyle=none;html=1;exitX=0.75;exitY=0;exitDx=0;exitDy=0;entryX=0.75;entryY=1;entryDx=0;entryDy=0;" edge="1" source="34" target="31" parent="1">
                    <mxGeometry relative="1" as="geometry"/>
                </mxCell>
                <mxCell id="33" value="新規登録" style="edgeLabel;html=1;align=center;verticalAlign=middle;resizable=0;points=[];" vertex="1" connectable="0" parent="32">
                    <mxGeometry x="-0.3272" y="2" relative="1" as="geometry">
                        <mxPoint as="offset"/>
                    </mxGeometry>
                </mxCell>
                <mxCell id="34" value="配当実績一覧" style="rounded=0;whiteSpace=wrap;html=1;align=left;strokeColor=default;horizontal=1;verticalAlign=top;" vertex="1" parent="1">
                    <mxGeometry x="820" y="690" width="160" height="80" as="geometry"/>
                </mxCell>
                <mxCell id="35" value="配当実績修正" style="rounded=0;whiteSpace=wrap;html=1;align=left;strokeColor=default;horizontal=1;verticalAlign=top;" vertex="1" parent="1">
                    <mxGeometry x="1100" y="690" width="160" height="80" as="geometry"/>
                </mxCell>
                <mxCell id="36" style="edgeStyle=none;html=1;exitX=0.25;exitY=1;exitDx=0;exitDy=0;entryX=0.25;entryY=0;entryDx=0;entryDy=0;" edge="1" source="31" target="34" parent="1">
                    <mxGeometry relative="1" as="geometry">
                        <mxPoint x="680" y="710" as="sourcePoint"/>
                        <mxPoint x="880" y="650" as="targetPoint"/>
                        <Array as="points"/>
                    </mxGeometry>
                </mxCell>
                <mxCell id="37" value="登録&lt;br&gt;／キャンセル" style="edgeLabel;html=1;align=center;verticalAlign=middle;resizable=0;points=[];" vertex="1" connectable="0" parent="36">
                    <mxGeometry x="-0.2217" relative="1" as="geometry">
                        <mxPoint as="offset"/>
                    </mxGeometry>
                </mxCell>
                <mxCell id="38" style="edgeStyle=none;html=1;exitX=1;exitY=0.25;exitDx=0;exitDy=0;entryX=0;entryY=0.25;entryDx=0;entryDy=0;" edge="1" source="34" target="35" parent="1">
                    <mxGeometry relative="1" as="geometry">
                        <mxPoint x="1080" y="730" as="sourcePoint"/>
                        <mxPoint x="1080" y="810" as="targetPoint"/>
                        <Array as="points"/>
                    </mxGeometry>
                </mxCell>
                <mxCell id="39" value="選択" style="edgeLabel;html=1;align=center;verticalAlign=middle;resizable=0;points=[];" vertex="1" connectable="0" parent="38">
                    <mxGeometry x="-0.2217" relative="1" as="geometry">
                        <mxPoint as="offset"/>
                    </mxGeometry>
                </mxCell>
                <mxCell id="40" style="edgeStyle=none;html=1;exitX=0;exitY=0.75;exitDx=0;exitDy=0;entryX=1;entryY=0.75;entryDx=0;entryDy=0;" edge="1" source="35" target="34" parent="1">
                    <mxGeometry relative="1" as="geometry">
                        <mxPoint x="1000" y="810" as="sourcePoint"/>
                        <mxPoint x="1120" y="810" as="targetPoint"/>
                        <Array as="points"/>
                    </mxGeometry>
                </mxCell>
                <mxCell id="41" value="保存&lt;br&gt;／キャンセル" style="edgeLabel;html=1;align=center;verticalAlign=middle;resizable=0;points=[];" vertex="1" connectable="0" parent="40">
                    <mxGeometry x="-0.2217" relative="1" as="geometry">
                        <mxPoint as="offset"/>
                    </mxGeometry>
                </mxCell>
                <mxCell id="42" style="edgeStyle=orthogonalEdgeStyle;html=1;exitX=1;exitY=0.25;exitDx=0;exitDy=0;entryX=0;entryY=0.5;entryDx=0;entryDy=0;" edge="1" parent="1" source="3" target="16">
                    <mxGeometry relative="1" as="geometry">
                        <mxPoint x="500" y="369.52" as="sourcePoint"/>
                        <mxPoint x="780" y="369.52" as="targetPoint"/>
                    </mxGeometry>
                </mxCell>
                <mxCell id="50" value="銘柄一覧" style="edgeLabel;html=1;align=center;verticalAlign=middle;resizable=0;points=[];" vertex="1" connectable="0" parent="42">
                    <mxGeometry x="0.7867" y="1" relative="1" as="geometry">
                        <mxPoint x="-38" y="1" as="offset"/>
                    </mxGeometry>
                </mxCell>
                <mxCell id="44" style="edgeStyle=orthogonalEdgeStyle;html=1;exitX=0.25;exitY=0;exitDx=0;exitDy=0;entryX=0.188;entryY=-0.006;entryDx=0;entryDy=0;entryPerimeter=0;" edge="1" parent="1" source="31" target="31">
                    <mxGeometry relative="1" as="geometry"/>
                </mxCell>
                <mxCell id="51" style="edgeStyle=orthogonalEdgeStyle;html=1;exitX=1;exitY=0.75;exitDx=0;exitDy=0;entryX=0;entryY=0.5;entryDx=0;entryDy=0;" edge="1" parent="1" source="3" target="34">
                    <mxGeometry relative="1" as="geometry">
                        <mxPoint x="580" y="680" as="sourcePoint"/>
                        <mxPoint x="830" y="640" as="targetPoint"/>
                    </mxGeometry>
                </mxCell>
                <mxCell id="53" value="" style="rounded=0;whiteSpace=wrap;html=1;strokeColor=default;fillColor=#CCCCCC;" vertex="1" parent="1">
                    <mxGeometry x="360" y="430" width="1000" height="340" as="geometry"/>
                </mxCell>
                <mxCell id="55" value="" style="rounded=0;whiteSpace=wrap;html=1;strokeColor=default;fillColor=#CCCCCC;" vertex="1" parent="1">
                    <mxGeometry x="60" y="400" width="280" height="370" as="geometry"/>
                </mxCell>
            </root>
        </mxGraphModel>
    </diagram>
</mxfile>